<svg xmlns="http://www.w3.org/2000/svg" width="20" height="20" fill="currentColor" viewBox="0 0 20 20"><path d="M17 11c0 3.86-3.14 7-7 7s-7-3.14-7-7c0-.55.45-1 1-1s1 .45 1 1c0 2.76 2.24 5 5 5s5-2.24 5-5c0-2.6-2-4.72-4.54-4.95l.25.25A.996.996 0 0 1 10 8c-.26 0-.51-.1-.71-.29l-2-2a.996.996 0 0 1 0-1.41l2-2a.996.996 0 1 1 1.41 1.41l-.31.31C14.07 4.23 17 7.27 17 11m-6 2c-.28 0-.5-.22-.5-.5v-3c0-.28.22-.5.5-.5h2c.28 0 .5.22.5.5v3c0 .28-.22.5-.5.5zm.5-1h1v-2h-1zm-2 .5v-3c0-.28-.22-.5-.5-.5H6.5v1h2v.6h-1v.8h1v.6h-2v1H9c.28 0 .5-.22.5-.5"/></svg>
