<svg xmlns="http://www.w3.org/2000/svg" width="20" height="20" fill="currentColor" viewBox="0 0 20 20"><path d="M17.71 16.29a.996.996 0 0 1-.71 1.7c-.26 0-.51-.1-.71-.29l-14-13.99A.996.996 0 1 1 3.7 2.3l14 14ZM10 6c2.21 0 4 1.79 4 4 0 .36-.06.69-.15 1.02l3.06 3.06c1.35-1.09 2.43-2.49 3.09-4.09-1.57-3.8-5.45-6.5-10-6.5-1.12 0-2.19.16-3.21.47l2.18 2.18c.33-.09.67-.15 1.02-.15Zm0 8c-2.21 0-4-1.79-4-4 0-.36.06-.69.15-1.02L3.09 5.92C1.74 7.01.66 8.41 0 10.01c1.57 3.8 5.45 6.5 10 6.5 1.12 0 2.19-.16 3.21-.47l-2.18-2.18c-.33.09-.67.15-1.02.15Z"/></svg>
