<svg xmlns="http://www.w3.org/2000/svg" width="20" height="20" fill="currentColor" viewBox="0 0 20 20"><path d="m6.95 11.64 4.69-4.69a.996.996 0 1 1 1.41 1.41l-4.69 4.69c-.2.2-.45.29-.71.29s-.51-.1-.71-.29a.996.996 0 0 1 0-1.41Zm8.79-7.38c-1.68-1.68-4.42-1.68-6.11 0L8.12 5.77a.996.996 0 1 0 1.41 1.41l1.51-1.51c.9-.9 2.37-.9 3.28 0 .9.9.9 2.38 0 3.28l-1.51 1.51a.996.996 0 0 0 .71 1.7c.26 0 .51-.1.71-.29l1.51-1.51c1.68-1.68 1.68-4.42 0-6.11Zm-5.27 8.55-1.51 1.51c-.9.9-2.37.9-3.28 0-.9-.9-.9-2.38 0-3.28l1.51-1.51a.996.996 0 1 0-1.41-1.41L4.27 9.63c-1.68 1.68-1.68 4.42 0 6.11.84.84 1.95 1.26 3.05 1.26s2.21-.42 3.05-1.26l1.51-1.51a.996.996 0 1 0-1.41-1.41Z"/></svg>
