<svg xmlns="http://www.w3.org/2000/svg" width="20" height="20" fill="currentColor" viewBox="0 0 20 20"><path d="M11 16c0 .55-.45 1-1 1H4c-.55 0-1-.45-1-1V4c0-.55.45-1 1-1h6c.55 0 1 .45 1 1s-.45 1-1 1H5v10h5c.55 0 1 .45 1 1m7.93-5.64c.04-.11.07-.23.07-.35V10c0-.12-.03-.25-.07-.36-.02-.05-.05-.08-.07-.12-.03-.05-.05-.11-.09-.15l-5-6c-.35-.42-.98-.48-1.41-.13-.42.35-.48.98-.13 1.41l3.63 4.36H8V9c-.55 0-1 .45-1 1s.45 1 1 1h7.87l-3.64 4.38a1.001 1.001 0 1 0 1.54 1.28l5-6 .09-.15c.02-.04.05-.08.07-.12Z"/></svg>
