<svg xmlns="http://www.w3.org/2000/svg" width="20" height="20" fill="currentColor" viewBox="0 0 20 20"><path d="M16.55 2.16c-.28-.18-.64-.21-.95-.08L12 3.65 8.4 2.08s-.03 0-.04-.01l-.12-.03-.12-.03h-.25c-.04 0-.08.01-.12.02-.04.01-.08.02-.12.04-.01 0-.03 0-.04.01l-4 1.75c-.36.16-.6.52-.6.92V17c0 .34.17.65.45.84.17.11.36.16.55.16.14 0 .27-.03.4-.08l3.6-1.57 3.6 1.57h.04c.12.04.23.07.36.07s.24-.03.36-.07h.04l4-1.75c.36-.16.6-.52.6-.92V3c0-.34-.17-.65-.45-.84ZM5 5.4l2-.88v10.07l-2 .88zm4-.88 2 .88v10.07l-2-.88V4.53Zm6 10.07-2 .88V5.4l2-.88z"/></svg>
