<svg xmlns="http://www.w3.org/2000/svg" width="20" height="20" fill="currentColor" viewBox="0 0 20 20"><path d="m19.09 9.67-1.93-2 .39-2.75a.486.486 0 0 0-.39-.54l-2.74-.48-1.3-2.45a.48.48 0 0 0-.42-.25c-.07 0-.14.02-.21.05l-2.5 1.22-2.5-1.22a.468.468 0 0 0-.63.2L5.56 3.9l-2.74.48c-.25.04-.42.28-.39.54l.39 2.75-1.93 2a.47.47 0 0 0 0 .66l1.93 2-.39 2.75c-.04.25.14.49.39.54l2.74.48 1.3 2.45c.09.16.25.25.42.25.07 0 .14-.02.21-.05l2.5-1.22 2.5 1.22c.07.03.14.05.21.05.17 0 .33-.09.42-.25l1.3-2.45 2.74-.48c.25-.04.42-.28.39-.54l-.39-2.75 1.93-2a.47.47 0 0 0 0-.66m-3.37 1.26-.68.7.14.97.18 1.29-1.28.22-.96.17-.46.86-.61 1.15-1.17-.57-.88-.43-.88.43-1.17.57-.61-1.15-.46-.86-.96-.17-1.28-.22.18-1.29.14-.97-.68-.7-.91-.93.91-.93.68-.7-.14-.97-.18-1.29 1.28-.22.96-.17.46-.86.61-1.15 1.17.57.88.43.88-.43 1.17-.57.61 1.15.46.86.96.17 1.28.22-.18 1.29-.14.97.68.7.91.93zM9 6h2v4H9zm0 6h2v2H9z"/></svg>
