<svg xmlns="http://www.w3.org/2000/svg" width="20" height="20" fill="currentColor" viewBox="0 0 20 20"><path d="m19.09 9.67-1.93-2 .39-2.75a.486.486 0 0 0-.39-.54l-2.74-.48-1.3-2.45a.488.488 0 0 0-.63-.21l-2.5 1.22-2.5-1.22a.478.478 0 0 0-.63.21L5.56 3.9l-2.74.48c-.25.04-.42.28-.39.54l.39 2.75-1.93 2a.47.47 0 0 0 0 .66l1.93 2-.39 2.75c-.04.25.14.49.39.54l2.74.48 1.3 2.45c.12.23.4.32.63.21l2.5-1.22 2.5 1.22c.07.03.14.05.21.05.17 0 .33-.09.42-.25l1.3-2.45 2.74-.48c.25-.04.42-.28.39-.54l-.39-2.75 1.93-2a.47.47 0 0 0 0-.66ZM10 14c-.55 0-1-.45-1-1s.45-1 1-1 1 .45 1 1-.45 1-1 1m1-4c0 .55-.45 1-1 1s-1-.45-1-1V7c0-.55.45-1 1-1s1 .45 1 1z"/></svg>