<svg xmlns="http://www.w3.org/2000/svg" width="20" height="20" fill="currentColor" viewBox="0 0 20 20"><path d="M14 5H6c-.55 0-1 .45-1 1v8c0 .55.45 1 1 1h8c.55 0 1-.45 1-1V6c0-.55-.45-1-1-1m-1 8H7V7h6zM4 8c0 .55-.45 1-1 1H2c-.55 0-1-.45-1-1s.45-1 1-1h1c.55 0 1 .45 1 1m0 4c0 .55-.45 1-1 1H2c-.55 0-1-.45-1-1s.45-1 1-1h1c.55 0 1 .45 1 1m12-4c0-.55.45-1 1-1h1c.55 0 1 .45 1 1s-.45 1-1 1h-1c-.55 0-1-.45-1-1m3 4c0 .55-.45 1-1 1h-1c-.55 0-1-.45-1-1s.45-1 1-1h1c.55 0 1 .45 1 1M9 17v1c0 .55-.45 1-1 1s-1-.45-1-1v-1c0-.55.45-1 1-1s1 .45 1 1m4 0v1c0 .55-.45 1-1 1s-1-.45-1-1v-1c0-.55.45-1 1-1s1 .45 1 1M7 3V2c0-.55.45-1 1-1s1 .45 1 1v1c0 .55-.45 1-1 1s-1-.45-1-1m4 0V2c0-.55.45-1 1-1s1 .45 1 1v1c0 .55-.45 1-1 1s-1-.45-1-1"/></svg>