<svg xmlns="http://www.w3.org/2000/svg" width="20" height="20" fill="currentColor" viewBox="0 0 20 20"><path d="M17.82 11.69C17.03 15.35 13.74 18 10 18c-2.54 0-4.86-1.2-6.35-3.15v2.49c0 .55-.45 1-1 1s-1-.45-1-1v-5c0-.55.45-1 1-1h5c.55 0 1 .45 1 1s-.45 1-1 1H5.03A5.964 5.964 0 0 0 10 15.99c2.81 0 5.28-1.99 5.87-4.73.12-.54.65-.89 1.19-.77.54.12.88.65.77 1.19Zm-.47-10.04c-.55 0-1 .45-1 1v2.52A7.985 7.985 0 0 0 10 2C6.26 2 2.98 4.65 2.18 8.29c-.12.54.22 1.07.76 1.19.07.02.14.02.21.02.46 0 .87-.32.98-.79.59-2.73 3.06-4.72 5.86-4.72 2.01 0 3.86 1.02 4.96 2.65h-2.62c-.55 0-1 .45-1 1s.45 1 1 1h5c.55 0 1-.45 1-1V2.65c0-.55-.45-1-1-1Z"/></svg>
