<svg xmlns="http://www.w3.org/2000/svg" width="20" height="20" fill="currentColor" viewBox="0 0 20 20"><path d="M6 4c0 .55-.45 1-1 1 0 .55-.45 1-1 1s-1-.45-1-1V4c0-.55.45-1 1-1h1c.55 0 1 .45 1 1m10-1h-1c-.55 0-1 .45-1 1s.45 1 1 1c0 .55.45 1 1 1s1-.45 1-1V4c0-.55-.45-1-1-1M5 15c0-.55-.45-1-1-1s-1 .45-1 1v1c0 .55.45 1 1 1h1c.55 0 1-.45 1-1s-.45-1-1-1m11-1c-.55 0-1 .45-1 1-.55 0-1 .45-1 1s.45 1 1 1h1c.55 0 1-.45 1-1v-1c0-.55-.45-1-1-1M4 12c.55 0 1-.45 1-1V9c0-.55-.45-1-1-1s-1 .45-1 1v2c0 .55.45 1 1 1m12-4c-.55 0-1 .45-1 1v2c0 .55.45 1 1 1s1-.45 1-1V9c0-.55-.45-1-1-1M9 5h2c.55 0 1-.45 1-1s-.45-1-1-1H9c-.55 0-1 .45-1 1s.45 1 1 1m2 10H9c-.55 0-1 .45-1 1s.45 1 1 1h2c.55 0 1-.45 1-1s-.45-1-1-1m2-7v4c0 .55-.45 1-1 1H8c-.55 0-1-.45-1-1V8c0-.55.45-1 1-1h4c.55 0 1 .45 1 1m-2 1H9v2h2z"/></svg>
