<svg xmlns="http://www.w3.org/2000/svg" width="20" height="20" fill="currentColor" viewBox="0 0 20 20"><path d="M2 7h2.03c.41 1.14 1.49 1.96 2.77 1.96S9.16 8.14 9.57 7H18c.55 0 1-.45 1-1s-.45-1-1-1H9.57C9.16 3.86 8.08 3.04 6.8 3.04S4.44 3.86 4.03 5H2c-.55 0-1 .45-1 1s.45 1 1 1m4.8-2.2C7.46 4.8 8 5.34 8 6s-.54 1.2-1.2 1.2S5.6 6.66 5.6 6s.54-1.2 1.2-1.2M18 13h-2.03c-.41-1.14-1.49-1.96-2.77-1.96s-2.36.82-2.77 1.96H2c-.55 0-1 .45-1 1s.45 1 1 1h8.43c.41 1.14 1.49 1.96 2.77 1.96s2.36-.82 2.77-1.96H18c.55 0 1-.45 1-1s-.45-1-1-1m-4.8 2.2c-.66 0-1.2-.54-1.2-1.2s.54-1.2 1.2-1.2 1.2.54 1.2 1.2-.54 1.2-1.2 1.2"/></svg>
