<svg xmlns="http://www.w3.org/2000/svg" width="20" height="20" fill="currentColor" viewBox="0 0 20 20"><path d="M13 12c-1.103 0-2-.897-2-2s.897-2 2-2 2 .897 2 2-.897 2-2 2M6.115 8.55l-1.008 2a1 1 0 0 0 .894 1.451h2a1 1 0 0 0 .896-1.445l-.992-2A1 1 0 0 0 7.012 8h-.003c-.377 0-.723.213-.893.55Zm2.592 4.743a.999.999 0 1 0-1.414 1.414l.246.246C5.001 14.716 3 12.599 3 10a5.03 5.03 0 0 1 3.214-4.673 1 1 0 1 0-.715-1.867A7.04 7.04 0 0 0 .999 10c0 3.726 2.93 6.774 6.606 6.98l-.313.313a.999.999 0 1 0 1.414 1.414l2-2a1 1 0 0 0 0-1.414zM12.394 3.02l.313-.313a.999.999 0 1 0-1.414-1.414l-2 2a1 1 0 0 0 0 1.414l2 2a.997.997 0 0 0 1.414 0 1 1 0 0 0 0-1.414l-.246-.246C14.999 5.284 17 7.401 17 10a5.03 5.03 0 0 1-3.214 4.673 1 1 0 1 0 .714 1.868 7.04 7.04 0 0 0 4.5-6.54c0-3.726-2.93-6.774-6.606-6.98Z"/></svg>
