<svg xmlns="http://www.w3.org/2000/svg" width="14" height="14" fill="currentColor" viewBox="0 0 14 14"><path d="M5.5 2c0 .83-.67 1.5-1.5 1.5S2.5 2.83 2.5 2 3.17.5 4 .5s1.5.67 1.5 1.5M10 3.5c.83 0 1.5-.67 1.5-1.5S10.83.5 10 .5 8.5 1.17 8.5 2s.67 1.5 1.5 1.5m-6 7c-.83 0-1.5.67-1.5 1.5s.67 1.5 1.5 1.5 1.5-.67 1.5-1.5-.67-1.5-1.5-1.5m6 0c-.83 0-1.5.67-1.5 1.5s.67 1.5 1.5 1.5 1.5-.67 1.5-1.5-.67-1.5-1.5-1.5m-6-5c-.83 0-1.5.67-1.5 1.5S3.17 8.5 4 8.5 5.5 7.83 5.5 7 4.83 5.5 4 5.5m6 0c-.83 0-1.5.67-1.5 1.5s.67 1.5 1.5 1.5 1.5-.67 1.5-1.5-.67-1.5-1.5-1.5"/></svg>
