<svg xmlns="http://www.w3.org/2000/svg" width="20" height="20" fill="currentColor" viewBox="0 0 20 20"><path d="M11.925 10.511c.044-.164.075-.334.075-.511s-.031-.347-.075-.511l4.782-4.782a.999.999 0 1 0-1.414-1.414l-4.782 4.782C10.347 8.031 10.177 8 10 8s-.347.031-.511.075l-.782-.782c-.047-.047-.106-.07-.16-.106C8.827 6.684 9 6.115 9 5.5 9 3.57 7.43 2 5.5 2S2 3.57 2 5.5 3.57 9 5.5 9c.615 0 1.184-.173 1.687-.453.036.053.059.113.106.16l.782.782C8.031 9.653 8 9.823 8 10s.031.347.075.511l-.782.782c-.047.047-.07.106-.106.16A3.45 3.45 0 0 0 5.5 11C3.57 11 2 12.57 2 14.5S3.57 18 5.5 18 9 16.43 9 14.5c0-.615-.173-1.184-.453-1.687.053-.036.113-.059.16-.106l.782-.782c.164.044.334.075.511.075s.347-.031.511-.075l4.782 4.782a.997.997 0 0 0 1.414 0 1 1 0 0 0 0-1.414zM5.5 7C4.673 7 4 6.327 4 5.5S4.673 4 5.5 4 7 4.673 7 5.5 6.327 7 5.5 7m0 9c-.827 0-1.5-.673-1.5-1.5S4.673 13 5.5 13s1.5.673 1.5 1.5S6.327 16 5.5 16"/></svg>
