<svg xmlns="http://www.w3.org/2000/svg" width="20" height="20" fill="currentColor" viewBox="0 0 20 20"><path d="M11 10c-.55 0-1 .45-1 1v2c-1.66 0-3-1.34-3-3s1.34-3 3-3 3 1.34 3 3zm-6 0c0-2.76 2.24-5 5-5s5 2.24 5 5h2c0-3.86-3.14-7-7-7s-7 3.14-7 7 3.14 7 7 7v-2c-2.76 0-5-2.24-5-5m13 2v5c0 .55-.45 1-1 1h-5c-.55 0-1-.45-1-1v-5c0-.55.45-1 1-1h5c.55 0 1 .45 1 1m-1.5 2.5c0-.28-.22-.5-.5-.5h-1v-1c0-.28-.22-.5-.5-.5s-.5.22-.5.5v1h-1c-.28 0-.5.22-.5.5s.22.5.5.5h1v1c0 .28.22.5.5.5s.5-.22.5-.5v-1h1c.28 0 .5-.22.5-.5"/></svg>