<svg xmlns="http://www.w3.org/2000/svg" width="20" height="20" fill="currentColor" viewBox="0 0 20 20"><path d="M12 5V3c0-.55.45-1 1-1s1 .45 1 1v2c0 .55.45 1 1 1h2c.55 0 1 .45 1 1s-.45 1-1 1h-2c-1.65 0-3-1.35-3-3m5 7h-2c-1.65 0-3 1.35-3 3v2c0 .55.45 1 1 1s1-.45 1-1v-2c0-.55.45-1 1-1h2c.55 0 1-.45 1-1s-.45-1-1-1M5 12H3c-.55 0-1 .45-1 1s.45 1 1 1h2c.55 0 1 .45 1 1v2c0 .55.45 1 1 1s1-.45 1-1v-2c0-1.65-1.35-3-3-3M7 2c-.55 0-1 .45-1 1v2c0 .55-.45 1-1 1H3c-.55 0-1 .45-1 1s.45 1 1 1h2c1.65 0 3-1.35 3-3V3c0-.55-.45-1-1-1"/></svg>
