<svg xmlns="http://www.w3.org/2000/svg" width="20" height="20" fill="currentColor" viewBox="0 0 20 20"><path d="M17 11c0 3.86-3.14 7-7 7s-7-3.14-7-7 2.93-6.77 6.61-6.98l-.31-.31a.996.996 0 1 1 1.41-1.41l2 2c.39.39.39 1.02 0 1.41l-2 2c-.2.2-.45.29-.71.29s-.51-.1-.71-.29a.996.996 0 0 1 0-1.41l.25-.25C7 6.29 5 8.4 5 11c0 2.76 2.24 5 5 5s5-2.24 5-5c0-.55.45-1 1-1s1 .45 1 1m-8 2V9.5c0-.28-.22-.5-.5-.5H7v1h1v3zm4-3V9h-3v1.9c0 .28.22.5.5.5H12v.6h-2v1h2.5c.28 0 .5-.22.5-.5v-1.4c0-.28-.22-.5-.5-.5H11V10z"/></svg>
