<svg xmlns="http://www.w3.org/2000/svg" width="20" height="20" fill="currentColor" viewBox="0 0 20 20"><path d="M16.6 3.97c-.93-.92-2.09-1.39-3.45-1.39-.75 0-1.48.16-2.16.48-.36.17-.69.37-1 .61-.31-.24-.64-.44-.99-.61-.68-.32-1.41-.48-2.16-.48-1.37 0-2.53.47-3.45 1.4-.93.93-1.4 2.09-1.4 3.46 0 .65.11 1.29.33 1.91.21.61.58 1.26 1.09 1.95.48.65 1.13 1.38 1.93 2.18.78.78 1.77 1.71 2.96 2.79l1.01.91c.19.17.43.26.67.26s.48-.08.67-.26l1.02-.91c1.19-1.07 2.19-2.01 2.96-2.78.8-.8 1.45-1.54 1.93-2.18.51-.69.88-1.35 1.09-1.95.22-.62.33-1.26.33-1.91 0-1.37-.47-2.53-1.4-3.46Zm-.81 4.7c-.15.42-.42.9-.81 1.42-.42.57-1.01 1.23-1.74 1.96-.75.75-1.72 1.66-2.88 2.71l-.35.31-.35-.31a83 83 0 0 1-2.88-2.71c-.73-.73-1.32-1.39-1.74-1.96-.39-.53-.67-1.01-.81-1.42a3.8 3.8 0 0 1-.21-1.24c0-.83.26-1.5.81-2.04.55-.55 1.21-.81 2.04-.81.46 0 .89.1 1.31.29.42.2.77.47 1.08.83.38.45 1.14.45 1.52 0 .31-.36.66-.63 1.08-.83s.85-.29 1.31-.29c.83 0 1.49.26 2.04.81.54.54.81 1.21.81 2.04 0 .42-.07.84-.21 1.24Z"/></svg>
