<svg xmlns="http://www.w3.org/2000/svg" width="20" height="20" fill="currentColor" viewBox="0 0 20 20"><path d="M10 1c-4.96 0-9 4.04-9 9s4.04 9 9 9 9-4.04 9-9-4.04-9-9-9m0 16c-3.86 0-7-3.14-7-7s3.14-7 7-7 7 3.14 7 7-3.14 7-7 7m.81-3.47c.23.22.34.5.34.82s-.11.6-.34.82-.5.34-.82.34-.59-.11-.82-.34-.34-.5-.34-.82.11-.59.34-.82c.23-.22.5-.34.82-.34s.59.11.82.34m1.47-8.25c.57.53.85 1.23.85 2.08 0 .45-.1.86-.31 1.24s-.57.81-1.09 1.32c-.36.35-.6.65-.7.89s-.15.64-.15 1.19H9.09c0-.81.07-1.38.2-1.71.14-.33.46-.73.98-1.21.27-.24.51-.49.75-.76.23-.27.35-.57.35-.91q0-.57-.39-.9c-.26-.23-.58-.34-.96-.34s-.7.12-.99.35-.51.57-.65 1l-1.61-.66c.24-.73.65-1.3 1.24-1.74.59-.43 1.29-.65 2.08-.65.89 0 1.61.27 2.18.8Z"/></svg>
