<svg xmlns="http://www.w3.org/2000/svg" width="20" height="20" fill="currentColor" viewBox="0 0 20 20"><path d="M18 7.43c0 .65-.11 1.29-.33 1.91-.21.61-.58 1.26-1.09 1.95-.48.65-1.13 1.38-1.93 2.18-.78.78-1.77 1.72-2.96 2.78l-1.02.91c-.19.17-.43.26-.67.26s-.48-.08-.67-.26l-1.02-.91a78 78 0 0 1-2.96-2.79c-.8-.8-1.45-1.53-1.93-2.18-.51-.69-.88-1.35-1.09-1.95C2.11 8.71 2 8.07 2 7.42c0-1.37.47-2.53 1.4-3.46s2.09-1.4 3.46-1.4c.75 0 1.48.16 2.16.48.35.17.69.37.99.61.31-.24.64-.44.99-.61q1.02-.48 2.16-.48c1.37 0 2.53.47 3.45 1.4.93.93 1.4 2.09 1.4 3.46Z"/></svg>
