<svg xmlns="http://www.w3.org/2000/svg" width="20" height="20" fill="currentColor" viewBox="0 0 20 20"><path d="M11 7v3c0 .55-.45 1-1 1s-1-.45-1-1V7c0-.55.45-1 1-1s1 .45 1 1m-1 5c-.55 0-1 .45-1 1s.45 1 1 1 1-.45 1-1-.45-1-1-1m9.09-1.67-1.93 2 .39 2.75c.04.25-.14.49-.39.54l-2.74.48-1.3 2.45a.468.468 0 0 1-.63.2l-2.5-1.22-2.5 1.22c-.07.03-.14.05-.21.05a.48.48 0 0 1-.42-.25l-1.3-2.45-2.74-.48a.482.482 0 0 1-.39-.54l.39-2.75-1.93-2a.47.47 0 0 1 0-.66l1.93-2-.39-2.75c-.04-.25.14-.49.39-.54l2.74-.48 1.3-2.45a.48.48 0 0 1 .42-.25c.07 0 .14.02.21.05l2.5 1.22 2.5-1.22a.468.468 0 0 1 .63.2l1.3 2.45 2.74.48c.25.04.42.28.39.54l-.39 2.75 1.93 2c.18.18.18.48 0 .66M16.63 10l-.91-.93-.68-.7.14-.97.18-1.29-1.28-.22-.96-.17-.46-.86-.61-1.15-1.17.57-.88.43-.88-.43-1.17-.57-.61 1.15-.46.86-.96.17-1.28.22.18 1.29.14.97-.68.7-.91.93.91.93.68.7-.14.97-.18 1.29 1.28.22.96.17.46.86.61 1.15 1.17-.57.88-.43.88.43 1.17.57.61-1.15.46-.86.96-.17 1.28-.22-.18-1.29-.14-.97.68-.7z"/></svg>
