<svg xmlns="http://www.w3.org/2000/svg" width="20" height="20" fill="currentColor" viewBox="0 0 20 20"><path d="M14.44 6.43a4.44 4.44 0 0 0-8.88 0c0 .67.16 1.3.43 1.88A6.9 6.9 0 0 0 3 14.02c0 1.22.33 2.43.95 3.49.19.32.52.5.87.5.17 0 .34-.04.5-.14.48-.28.64-.89.36-1.37a4.93 4.93 0 0 1 1.58-6.62c.76.6 1.71.98 2.75.98a4.44 4.44 0 0 0 4.44-4.43ZM10 4c1.35 0 2.44 1.09 2.44 2.43S11.35 8.86 10 8.86 7.56 7.77 7.56 6.43 8.65 4 10 4m8 7.5a2.5 2.5 0 0 0-5 0c0 .92.5 1.71 1.24 2.15-.12.15-.22.32-.24.52-.03.31.09.61.31.83l.19.17-.24.28a.995.995 0 0 0 .08 1.4l.99.9c.19.17.43.26.67.26.14 0 .28-.03.41-.09.36-.16.59-.52.59-.91v-3.25c0-.08-.03-.15-.05-.23A2.49 2.49 0 0 0 18 11.51Zm-2.5-.5c.28 0 .5.22.5.5s-.22.5-.5.5-.5-.22-.5-.5.22-.5.5-.5"/></svg>
