<svg xmlns="http://www.w3.org/2000/svg" width="20" height="20" fill="currentColor" viewBox="0 0 20 20"><path d="M17 12c0 2.76-2.24 5-5 5H5.41l.29.29a.996.996 0 0 1-.71 1.7c-.26 0-.51-.1-.71-.29l-2-2a.996.996 0 0 1 0-1.41l2-2a.996.996 0 1 1 1.41 1.41l-.29.29h6.59c1.65 0 3-1.35 3-3 0-.55.45-1 1-1s1 .45 1 1Zm.92-7.62a1 1 0 0 0-.22-1.09l-2-2a.996.996 0 1 0-1.41 1.41l.29.29H7.99c-2.76 0-5 2.24-5 5 0 .55.45 1 1 1s1-.45 1-1c0-1.65 1.35-3 3-3h6.59l-.29.29a.996.996 0 0 0 .71 1.7c.26 0 .51-.1.71-.29l2-2c.09-.09.17-.2.22-.33Z"/></svg>
