<svg xmlns="http://www.w3.org/2000/svg" width="20" height="20" fill="currentColor" viewBox="0 0 20 20"><path d="m18.65 11.53-1.39-1.1c0-.14.01-.28.01-.42s0-.29-.01-.43l1.41-1.1c.5-.4.64-1.1.32-1.7L17.3 3.85c-.31-.56-.98-.82-1.64-.59L14 3.93c-.24-.16-.48-.3-.73-.42l-.25-1.77c-.1-.65-.65-1.13-1.31-1.13h-3.4C7.65.61 7.1 1.08 7 1.75l-.25 1.76c-.25.12-.49.27-.73.42l-1.67-.67c-.61-.24-1.31.02-1.62.58L1.02 6.8c-.33.59-.18 1.3.34 1.69l1.39 1.09c-.01.15-.02.29-.02.43s0 .29.01.43l-1.41 1.1c-.5.4-.64 1.1-.32 1.7l1.69 2.93c.31.56.98.82 1.64.59L6 16.09c.24.16.48.3.73.42l.26 1.81c.13.64.67 1.09 1.31 1.09h3.4c.68 0 1.24-.5 1.31-1.14l.25-1.76c.25-.12.49-.27.73-.42l1.67.67c.61.24 1.31-.02 1.62-.58l1.71-2.96c.33-.59.18-1.3-.34-1.68Zm-3.23-2.21c.04.22.05.45.05.69 0 .25-.02.49-.05.72-.04.31.09.62.34.81l1.45 1.15-1.29 2.23-1.72-.69a.9.9 0 0 0-.88.12c-.4.3-.82.54-1.23.71-.3.12-.51.39-.55.71l-.26 1.84H8.71l-.26-1.84a.881.881 0 0 0-.55-.71c-.43-.17-.83-.41-1.23-.71a.9.9 0 0 0-.88-.12l-1.72.69-1.29-2.23 1.47-1.15c.26-.2.39-.53.33-.85-.04-.22-.05-.46-.05-.69s.03-.47.06-.69a.918.918 0 0 0-.33-.85L2.79 7.31l1.29-2.23 1.72.69c.29.12.62.07.88-.12.4-.3.82-.54 1.23-.71.3-.12.51-.39.55-.71l.26-1.84h2.57l.26 1.84c.04.32.25.59.55.71.43.17.83.41 1.23.71a.9.9 0 0 0 .88.12l1.72-.69 1.29 2.23-1.47 1.15c-.26.2-.39.53-.33.85ZM10 6.01c-2.21 0-4 1.79-4 4s1.79 4 4 4 4-1.79 4-4-1.79-4-4-4m0 6c-1.1 0-2-.9-2-2s.9-2 2-2 2 .9 2 2-.9 2-2 2"/></svg>
