<svg xmlns="http://www.w3.org/2000/svg" width="20" height="20" fill="currentColor" viewBox="0 0 20 20"><path d="M17.92 15.38c-.05.12-.12.23-.22.33l-2 2c-.2.2-.45.29-.71.29s-.51-.1-.71-.29a.996.996 0 0 1 0-1.41l.31-.31c-1.81-.09-3.47-1.21-4.48-3.06L7.46 8.05c-.69-1.28-1.8-2.04-2.95-2.04H2.98c-.55 0-1-.45-1-1s.45-1 1-1h1.53c1.89 0 3.65 1.15 4.7 3.08l2.65 4.88c.64 1.18 1.63 1.91 2.68 2.02l-.27-.27a.996.996 0 1 1 1.41-1.41l2 2a1 1 0 0 1 .22 1.09Zm-6.37-7.65c.3 0 .59-.13.79-.38.61-.78 1.39-1.23 2.21-1.32l-.26.26a.996.996 0 0 0 .71 1.7c.26 0 .51-.1.71-.29l2-2a1 1 0 0 0 0-1.42l-2-2a.996.996 0 1 0-1.41 1.41l.31.31c-1.45.07-2.83.82-3.84 2.1a.992.992 0 0 0 .17 1.4c.18.14.4.21.62.21Zm-4.39 4.73C6.47 13.44 5.51 14 4.53 14H3c-.55 0-1 .45-1 1s.45 1 1 1h1.53c1.64 0 3.19-.87 4.27-2.38a.994.994 0 0 0-.24-1.39.996.996 0 0 0-1.39.24Z"/></svg>
