<svg xmlns="http://www.w3.org/2000/svg" width="20" height="20" fill="currentColor" viewBox="0 0 20 20"><path d="M19 8.5h1V4.6c0-1.54-1.26-2.8-2.8-2.8H2.8C1.26 1.8 0 3.06 0 4.6v3.9h1c.82 0 1.49.68 1.49 1.5s-.67 1.5-1.5 1.5H0v3.9c0 1.54 1.26 2.8 2.8 2.8h14.4c1.54 0 2.8-1.26 2.8-2.8v-3.9h-1c-.83 0-1.5-.67-1.5-1.5s.67-1.5 1.5-1.5m-1 4.85v2.05c0 .43-.37.8-.8.8H2.8c-.43 0-.8-.37-.8-.8v-2.05c1.44-.43 2.5-1.77 2.5-3.35S3.45 7.08 2.01 6.65V4.6c0-.44.35-.8.79-.8h14.4c.43 0 .8.37.8.8v2.05c-1.44.43-2.5 1.77-2.5 3.35s1.06 2.92 2.5 3.35m-5.16-4.48c.1-.3.17-.62.17-.96a3.01 3.01 0 0 0-6.02 0c0 .34.07.66.17.96a4.43 4.43 0 0 0-1.66 3.47c0 .79.21 1.56.61 2.25.19.32.52.5.87.5.17 0 .34-.04.5-.14.48-.28.64-.89.36-1.37-.22-.38-.34-.81-.34-1.24 0-.75.34-1.43.9-1.89.46.29 1.01.47 1.6.47s1.13-.18 1.6-.47c.56.47.9 1.14.9 1.89 0 .43-.12.86-.34 1.24a.998.998 0 0 0 .36 1.37c.16.09.33.14.5.14.34 0 .68-.18.87-.5.4-.68.61-1.46.61-2.25 0-1.37-.62-2.63-1.66-3.47M9 7.91c0-.55.45-1 1.01-1s1.01.45 1.01 1-.45 1-1.01 1S9 8.46 9 7.91"/></svg>
