<svg xmlns="http://www.w3.org/2000/svg" width="20" height="20" fill="currentColor" viewBox="0 0 20 20"><path d="M14 7.5c0 .83-.67 1.5-1.5 1.5S11 8.33 11 7.5 11.67 6 12.5 6s1.5.67 1.5 1.5m3.36 3.06-6.67 6.67c-.58.58-1.35.88-2.12.88s-1.54-.29-2.12-.88l-3.67-3.67c-.57-.57-.88-1.32-.88-2.12s.31-1.55.88-2.12l6.66-6.66c.45-.45 1.1-.66 1.72-.56l4.51.69c.87.13 1.56.84 1.68 1.71l.58 4.38c.08.61-.13 1.24-.57 1.68m-1.42-1.42-.58-4.38-4.51-.69-6.66 6.66c-.19.19-.29.44-.29.71s.1.52.29.71l3.67 3.67c.39.39 1.02.39 1.42 0l6.67-6.67Z"/></svg>
