<svg xmlns="http://www.w3.org/2000/svg" width="20" height="20" fill="currentColor" viewBox="0 0 20 20"><path d="M15.96 10.04c0 .55-.45 1-1 1H5.04c-.55 0-1-.45-1-1s.45-1 1-1h9.93c.55 0 1 .45 1 1Zm-5.25 2.25a1 1 0 0 0-1.42 0l-2.5 2.5A.996.996 0 1 0 8.2 16.2l.79-.79V18c0 .55.45 1 1 1s1-.45 1-1v-2.59l.79.79c.2.2.45.29.71.29s.51-.1.71-.29a.996.996 0 0 0 0-1.41l-2.5-2.5ZM9.29 7.71c.09.09.2.17.33.22.12.05.25.08.38.08s.26-.03.38-.08.23-.12.33-.22l2.5-2.5A.996.996 0 1 0 11.8 3.8l-.79.79V2c0-.55-.45-1-1-1s-1 .45-1 1v2.59l-.79-.79a.996.996 0 1 0-1.41 1.41l2.5 2.5Z"/></svg>
