<svg xmlns="http://www.w3.org/2000/svg" width="20" height="20" fill="currentColor" viewBox="0 0 20 20"><path d="M14.01 8.3c.27-.57.43-1.2.43-1.88a4.44 4.44 0 0 0-8.88 0c0 .67.16 1.3.43 1.88A6.901 6.901 0 0 0 3 14.01c0 1.22.33 2.43.95 3.49.19.32.52.5.87.5.17 0 .34-.04.5-.14.48-.28.64-.89.36-1.37a4.931 4.931 0 0 1 1.58-6.62c.76.6 1.71.98 2.75.98s1.99-.38 2.75-.98a4.931 4.931 0 0 1 1.58 6.62.998.998 0 0 0 .36 1.37c.16.09.33.14.5.14.34 0 .68-.18.87-.5a6.927 6.927 0 0 0-2.04-9.2ZM7.56 6.42c0-1.34 1.09-2.43 2.44-2.43s2.44 1.09 2.44 2.43S11.35 8.85 10 8.85 7.56 7.76 7.56 6.42"/></svg>
