<svg xmlns="http://www.w3.org/2000/svg" width="20" height="20" fill="currentColor" viewBox="0 0 20 20"><path d="M14.01 8.3c.27-.57.43-1.2.43-1.88a4.44 4.44 0 0 0-8.88 0c0 .67.16 1.3.43 1.88A6.9 6.9 0 0 0 3 14.01c0 1.22.33 2.43.94 3.49.19.32.52.5.87.5.17 0 .34-.04.5-.14.48-.28.64-.89.36-1.37a4.93 4.93 0 0 1 1.58-6.62c.76.6 1.71.98 2.75.98s1.99-.38 2.75-.98a4.93 4.93 0 0 1 1.58 6.62 1 1 0 0 0 .36 1.37c.16.09.33.14.5.14.34 0 .68-.18.87-.5.62-1.06.94-2.27.94-3.49 0-2.31-1.13-4.42-2.99-5.71M7.56 6.43a2.441 2.441 0 0 1 4.88 0 2.441 2.441 0 0 1-4.88 0"/></svg>
