<svg xmlns="http://www.w3.org/2000/svg" width="20" height="20" fill="currentColor" viewBox="0 0 20 20"><path d="M9.42 3.09c-.35-.16-.77-.1-1.07.15L5.13 6H3c-.55 0-1 .45-1 1v6c0 .55.45 1 1 1h2.13l3.22 2.76a1.007 1.007 0 0 0 1.07.15c.35-.16.58-.52.58-.91V4c0-.39-.23-.75-.58-.91M8 13.82l-1.85-1.58A.969.969 0 0 0 5.5 12H4V8h1.5c.24 0 .47-.09.65-.24L8 6.18v7.65Zm9-3.83c0 3.52-2.61 6.43-6 6.92v-2.02a5 5 0 0 0 0-9.8V3.07c3.39.49 6 3.4 6 6.92m-6 3.86v-2.14c.59-.35 1-.98 1-1.72s-.41-1.37-1-1.72V6.13c1.72.45 3 2 3 3.86s-1.28 3.41-3 3.86"/></svg>