<svg xmlns="http://www.w3.org/2000/svg" width="20" height="20" fill="currentColor" viewBox="0 0 20 20"><path d="M17.71 17.71c-.2.2-.45.29-.71.29s-.51-.1-.71-.29l-14-14A.996.996 0 1 1 3.7 2.3l14 14c.39.39.39 1.02 0 1.41ZM14 10c0-1.86-1.28-3.41-3-3.86v2.03l2.85 2.85c.09-.33.15-.67.15-1.02m-3 4.9v2.02c.83-.12 1.61-.39 2.32-.77l-1.5-1.5c-.27.1-.54.19-.83.24Zm4-4.9c0 .64-.13 1.25-.35 1.82l1.5 1.5c.54-.99.85-2.12.85-3.32 0-3.52-2.61-6.43-6-6.92V5.1a5 5 0 0 1 4 4.9m-5-6a.997.997 0 0 0-1.65-.76L7.12 4.29 10 7.17zm-2 9.83-1.85-1.58a.969.969 0 0 0-.65-.24H4v-4h1.17l-2-2H3c-.55 0-1 .45-1 1v6c0 .55.45 1 1 1h2.13l3.22 2.76a1.007 1.007 0 0 0 1.07.15c.35-.16.58-.52.58-.91v-3.17l-2-2v3Z"/></svg>