<svg width="350" height="150" viewBox="0 0 350 150" fill="none" xmlns="http://www.w3.org/2000/svg">
<path fill-rule="evenodd" clip-rule="evenodd" d="M59 107C74.4979 107 87 94.5581 87 79.2857C87 69.6876 80.1575 60.6366 72.3198 53.5617C68.5049 50.1182 64.6719 47.3392 61.7847 45.4188C60.6997 44.6971 59.7539 44.1004 59 43.6389C58.2461 44.1004 57.3003 44.6971 56.2153 45.4188C53.3281 47.3392 49.4951 50.1182 45.6802 53.5617C37.8425 60.6366 31 69.6876 31 79.2857C31 94.5581 43.5021 107 59 107ZM59 111C76.6731 111 91 96.801 91 79.2857C91 56.4847 59 39 59 39C59 39 27 56.4847 27 79.2857C27 96.801 41.3269 111 59 111Z" fill="#06000B"/>
<path fill-rule="evenodd" clip-rule="evenodd" d="M7 23H111V127H7V23ZM11 27V123H107V27H11Z" fill="#06000B"/>
<path d="M137.474 81.932C135.458 81.932 133.97 81.468 133.01 80.54C132.05 79.612 131.57 78.14 131.57 76.124V58.508H128.45V56.012C128.706 55.916 129.17 55.756 129.842 55.532C130.514 55.276 131.026 55.068 131.378 54.908C131.922 54.492 132.386 53.772 132.77 52.748C133.058 52.076 133.586 50.412 134.354 47.756H138.194L138.386 54.812H145.73V58.508H138.434V71.996C138.434 73.788 138.482 75.052 138.578 75.788C138.674 76.524 138.882 77.004 139.202 77.228C139.522 77.42 140.082 77.516 140.882 77.516C141.682 77.516 142.514 77.436 143.378 77.276C144.242 77.084 144.962 76.86 145.538 76.604L146.45 79.292C145.554 79.964 144.242 80.572 142.514 81.116C140.786 81.66 139.106 81.932 137.474 81.932ZM154.716 50.444C153.564 50.444 152.652 50.108 151.98 49.436C151.308 48.764 150.972 47.9 150.972 46.844C150.972 45.628 151.356 44.62 152.124 43.82C152.892 43.02 153.916 42.62 155.196 42.62C156.476 42.62 157.452 42.972 158.124 43.676C158.796 44.348 159.132 45.196 159.132 46.22C159.132 47.5 158.748 48.524 157.98 49.292C157.212 50.06 156.14 50.444 154.764 50.444H154.716ZM152.172 59.372L148.764 58.46V55.244L157.548 54.188H157.644L158.988 55.148V78.236L162.204 78.62V81.5H148.812V78.62L152.172 78.188V59.372ZM168.332 59.372L165.26 58.508V55.196L173.228 54.188H173.372L174.572 55.148V57.02L174.524 58.172C175.644 57.116 177.1 56.204 178.892 55.436C180.684 54.668 182.492 54.284 184.316 54.284C186.268 54.284 187.788 54.652 188.876 55.388C189.996 56.092 190.796 57.212 191.276 58.748C191.756 60.284 191.996 62.364 191.996 64.988V78.236L194.924 78.62V81.5H182.54V78.62L185.132 78.236V64.988C185.132 63.324 185.02 62.028 184.796 61.1C184.572 60.14 184.156 59.452 183.548 59.036C182.972 58.588 182.14 58.364 181.052 58.364C179.228 58.364 177.276 59.148 175.196 60.716V78.188L178.076 78.62V81.5H165.548V78.62L168.332 78.188V59.372ZM206.38 81.932C204.364 81.932 202.876 81.468 201.916 80.54C200.956 79.612 200.476 78.14 200.476 76.124V58.508H197.356V56.012C197.612 55.916 198.076 55.756 198.748 55.532C199.42 55.276 199.932 55.068 200.284 54.908C200.828 54.492 201.292 53.772 201.676 52.748C201.964 52.076 202.492 50.412 203.26 47.756H207.1L207.292 54.812H214.636V58.508H207.34V71.996C207.34 73.788 207.388 75.052 207.484 75.788C207.58 76.524 207.788 77.004 208.108 77.228C208.428 77.42 208.988 77.516 209.788 77.516C210.588 77.516 211.42 77.436 212.284 77.276C213.148 77.084 213.868 76.86 214.444 76.604L215.356 79.292C214.46 79.964 213.148 80.572 211.42 81.116C209.692 81.66 208.012 81.932 206.38 81.932Z" fill="#06000B"/>
<path d="M133.948 107.764C132.752 107.764 131.724 107.456 130.863 106.841C130.001 106.217 129.347 105.386 128.898 104.349C128.459 103.303 128.239 102.156 128.239 100.908C128.239 99.6689 128.459 98.5308 128.898 97.4937C129.347 96.4478 129.997 95.6128 130.85 94.9888C131.702 94.3647 132.717 94.0527 133.895 94.0527C134.633 94.0527 135.332 94.1846 135.991 94.4482C136.659 94.7119 137.208 95.1118 137.639 95.6479V88.8716H140.909V107.5H137.916L137.771 106.01C137.34 106.608 136.787 107.052 136.11 107.342C135.442 107.623 134.721 107.764 133.948 107.764ZM134.726 104.85C135.789 104.85 136.584 104.49 137.112 103.769C137.648 103.048 137.916 102.095 137.916 100.908C137.916 99.7305 137.648 98.7812 137.112 98.0605C136.576 97.3311 135.78 96.9663 134.726 96.9663C133.671 96.9663 132.871 97.3354 132.326 98.0737C131.781 98.8032 131.509 99.748 131.509 100.908C131.509 102.077 131.777 103.026 132.313 103.756C132.858 104.485 133.662 104.85 134.726 104.85ZM150.282 107.764C148.832 107.764 147.606 107.452 146.604 106.828C145.602 106.204 144.851 105.377 144.35 104.349C143.857 103.312 143.611 102.183 143.611 100.961C143.611 99.7656 143.849 98.6406 144.323 97.5859C144.798 96.5312 145.519 95.6787 146.485 95.0283C147.461 94.3779 148.656 94.0527 150.071 94.0527C151.513 94.0527 152.69 94.3867 153.604 95.0547C154.519 95.7139 155.173 96.5488 155.569 97.5596C155.973 98.5615 156.175 99.6074 156.175 100.697C156.175 100.961 156.162 101.216 156.136 101.462C156.118 101.699 156.092 101.866 156.057 101.963H147.013C147.32 103.888 148.419 104.85 150.309 104.85C150.933 104.85 151.504 104.74 152.022 104.521C152.541 104.301 153.024 103.945 153.473 103.453L155.688 105.391C154.967 106.19 154.163 106.788 153.275 107.184C152.387 107.57 151.39 107.764 150.282 107.764ZM153.011 99.6426C153.011 99.3262 152.976 99.0493 152.906 98.812C152.748 98.1528 152.409 97.6475 151.891 97.2959C151.381 96.9355 150.766 96.7554 150.045 96.7554C148.375 96.7554 147.364 97.7178 147.013 99.6426H153.011ZM162.846 107.764C161.95 107.764 161.119 107.601 160.354 107.276C159.599 106.942 158.957 106.498 158.43 105.944C157.911 105.382 157.542 104.758 157.322 104.072L159.88 102.938C160.108 103.554 160.438 104.068 160.869 104.481C161.299 104.894 161.906 105.101 162.688 105.101C163.154 105.101 163.545 105.021 163.861 104.863C164.187 104.705 164.428 104.507 164.586 104.27C164.745 104.024 164.824 103.778 164.824 103.532C164.824 103.25 164.718 103.018 164.507 102.833C164.305 102.648 164.05 102.503 163.743 102.398C163.435 102.284 162.991 102.152 162.411 102.002C161.541 101.774 160.825 101.541 160.262 101.304C159.708 101.066 159.225 100.697 158.812 100.196C158.408 99.6865 158.206 99.0054 158.206 98.1528C158.206 97.2651 158.43 96.5137 158.878 95.8984C159.326 95.2832 159.919 94.8218 160.658 94.5142C161.405 94.2065 162.218 94.0527 163.097 94.0527C164.213 94.0527 165.197 94.3032 166.05 94.8042C166.902 95.3052 167.583 96.0083 168.093 96.9136L165.602 98.2715C165.329 97.7793 164.986 97.3794 164.573 97.0718C164.169 96.7554 163.642 96.5972 162.991 96.5972C162.481 96.5972 162.068 96.707 161.752 96.9268C161.444 97.1465 161.291 97.4146 161.291 97.731C161.291 97.9771 161.387 98.1836 161.581 98.3506C161.774 98.5176 162.016 98.6538 162.306 98.7593C162.604 98.8647 163.022 98.9966 163.558 99.1548C164.463 99.4097 165.21 99.6733 165.799 99.9458C166.388 100.209 166.898 100.618 167.329 101.172C167.768 101.726 167.988 102.459 167.988 103.374C167.988 104.34 167.742 105.153 167.25 105.812C166.757 106.472 166.12 106.964 165.338 107.289C164.556 107.605 163.725 107.764 162.846 107.764ZM170.796 88.8716H174.171V91.8379H170.796V88.8716ZM170.875 94.3296H174.092V107.5H170.875V94.3296ZM183.993 105.443C185.03 105.584 185.904 105.769 186.616 105.997C187.337 106.217 187.935 106.595 188.409 107.131C188.884 107.658 189.121 108.392 189.121 109.333C189.121 110.291 188.866 111.099 188.356 111.758C187.855 112.426 187.166 112.923 186.287 113.248C185.408 113.573 184.41 113.736 183.294 113.736C181.949 113.736 180.802 113.534 179.853 113.129C178.904 112.734 178.188 112.18 177.704 111.468C177.221 110.765 176.979 109.957 176.979 109.042C176.979 108.84 176.997 108.651 177.032 108.476L178.561 107.184C177.7 106.604 177.269 105.747 177.269 104.613C177.269 104.05 177.37 103.549 177.572 103.11C177.783 102.67 178.091 102.275 178.495 101.923C178.144 101.501 177.871 101.036 177.678 100.526C177.493 100.007 177.401 99.4624 177.401 98.8911C177.401 97.9595 177.647 97.1289 178.139 96.3994C178.631 95.6611 179.291 95.0854 180.117 94.6724C180.943 94.2593 181.839 94.0527 182.806 94.0527C183.377 94.0527 183.927 94.1274 184.454 94.2769C184.981 94.4175 185.469 94.624 185.917 94.8965L187.935 93.1694L189.609 95.2129L187.697 96.7554C188.075 97.4321 188.264 98.1968 188.264 99.0493C188.264 99.9985 188.022 100.838 187.539 101.567C187.056 102.297 186.405 102.864 185.588 103.268C184.771 103.664 183.878 103.861 182.912 103.861C182.024 103.861 181.189 103.69 180.407 103.347C180.152 103.514 180.024 103.747 180.024 104.046C180.024 104.345 180.143 104.578 180.38 104.745C180.626 104.903 180.947 105.021 181.343 105.101C181.747 105.171 182.345 105.25 183.136 105.338C183.294 105.364 183.443 105.386 183.584 105.404C183.733 105.413 183.87 105.426 183.993 105.443ZM182.912 96.5444C182.226 96.5444 181.69 96.7642 181.303 97.2036C180.917 97.6343 180.723 98.2056 180.723 98.9175C180.723 99.6118 180.912 100.174 181.29 100.605C181.677 101.027 182.217 101.238 182.912 101.238C183.606 101.238 184.138 101.027 184.507 100.605C184.885 100.174 185.074 99.6118 185.074 98.9175C185.074 98.2056 184.885 97.6343 184.507 97.2036C184.129 96.7642 183.597 96.5444 182.912 96.5444ZM183.268 111.257C184.138 111.257 184.823 111.125 185.324 110.862C185.825 110.598 186.076 110.207 186.076 109.688C186.076 109.363 185.961 109.108 185.733 108.924C185.513 108.739 185.179 108.594 184.731 108.489C184.292 108.392 183.667 108.304 182.859 108.225C182.78 108.216 182.494 108.19 182.002 108.146C181.51 108.102 181.026 108.032 180.552 107.935L179.84 109.122L179.919 109.478C180.104 110.102 180.49 110.554 181.079 110.835C181.677 111.117 182.406 111.257 183.268 111.257ZM191.811 94.3296H195.027V95.8589C195.528 95.2524 196.122 94.7998 196.807 94.501C197.493 94.2021 198.187 94.0527 198.89 94.0527C199.98 94.0527 200.885 94.312 201.606 94.8306C202.327 95.3491 202.854 96.0303 203.188 96.874C203.531 97.709 203.702 98.6143 203.702 99.5898V107.5H200.485V99.9985C200.485 99.1108 200.266 98.3945 199.826 97.8496C199.387 97.2959 198.767 97.019 197.967 97.019C197.036 97.019 196.311 97.2871 195.792 97.8232C195.282 98.3506 195.027 99.1724 195.027 100.289V107.5H191.811V94.3296ZM214.434 97.019H212.021V94.3296H214.46V92.563C214.46 91.7368 214.649 91.0249 215.027 90.4272C215.414 89.8296 215.928 89.377 216.569 89.0693C217.211 88.7529 217.91 88.5947 218.666 88.5947C219.448 88.5947 220.243 88.7749 221.052 89.1353L219.997 91.7852C219.637 91.5654 219.294 91.4556 218.969 91.4556C218.617 91.4556 218.327 91.5742 218.099 91.8115C217.87 92.0488 217.756 92.4092 217.756 92.8926V94.3296H220.828V97.019H217.756V107.5H214.434V97.019ZM227.934 107.764C226.615 107.764 225.442 107.456 224.414 106.841C223.385 106.217 222.59 105.382 222.027 104.336C221.465 103.281 221.184 102.13 221.184 100.882C221.184 99.6426 221.465 98.5044 222.027 97.4673C222.59 96.4214 223.385 95.5908 224.414 94.9756C225.442 94.3604 226.615 94.0527 227.934 94.0527C229.252 94.0527 230.425 94.3604 231.454 94.9756C232.482 95.5908 233.277 96.4214 233.84 97.4673C234.402 98.5044 234.684 99.6426 234.684 100.882C234.684 102.13 234.402 103.281 233.84 104.336C233.277 105.382 232.482 106.217 231.454 106.841C230.425 107.456 229.252 107.764 227.934 107.764ZM227.934 104.995C228.707 104.995 229.349 104.811 229.858 104.441C230.368 104.063 230.742 103.567 230.979 102.952C231.216 102.328 231.335 101.638 231.335 100.882C231.335 99.7041 231.054 98.7373 230.491 97.9814C229.938 97.2168 229.085 96.8345 227.934 96.8345C227.16 96.8345 226.519 97.019 226.009 97.3882C225.499 97.7485 225.125 98.2319 224.888 98.8384C224.651 99.4448 224.532 100.126 224.532 100.882C224.532 101.638 224.651 102.328 224.888 102.952C225.125 103.567 225.499 104.063 226.009 104.441C226.519 104.811 227.16 104.995 227.934 104.995ZM241.645 107.764C240.555 107.764 239.649 107.504 238.929 106.986C238.217 106.467 237.694 105.791 237.36 104.956C237.035 104.121 236.872 103.215 236.872 102.24V94.3296H240.049V101.831C240.049 102.719 240.269 103.435 240.708 103.98C241.148 104.525 241.768 104.797 242.567 104.797C243.508 104.797 244.237 104.529 244.756 103.993C245.274 103.457 245.534 102.635 245.534 101.528V94.3296H248.724V107.5H245.534V105.958C245.042 106.573 244.448 107.03 243.754 107.329C243.06 107.619 242.356 107.764 241.645 107.764ZM252.561 94.3296H255.777V95.8589C256.278 95.2524 256.872 94.7998 257.557 94.501C258.243 94.2021 258.937 94.0527 259.64 94.0527C260.73 94.0527 261.635 94.312 262.356 94.8306C263.077 95.3491 263.604 96.0303 263.938 96.874C264.281 97.709 264.452 98.6143 264.452 99.5898V107.5H261.235V99.9985C261.235 99.1108 261.016 98.3945 260.576 97.8496C260.137 97.2959 259.517 97.019 258.717 97.019C257.786 97.019 257.061 97.2871 256.542 97.8232C256.032 98.3506 255.777 99.1724 255.777 100.289V107.5H252.561V94.3296ZM272.534 107.764C271.338 107.764 270.31 107.456 269.449 106.841C268.587 106.217 267.933 105.386 267.484 104.349C267.045 103.303 266.825 102.156 266.825 100.908C266.825 99.6689 267.045 98.5308 267.484 97.4937C267.933 96.4478 268.583 95.6128 269.436 94.9888C270.288 94.3647 271.303 94.0527 272.481 94.0527C273.219 94.0527 273.918 94.1846 274.577 94.4482C275.245 94.7119 275.794 95.1118 276.225 95.6479V88.8716H279.495V107.5H276.502L276.357 106.01C275.926 106.608 275.373 107.052 274.696 107.342C274.028 107.623 273.307 107.764 272.534 107.764ZM273.312 104.85C274.375 104.85 275.17 104.49 275.698 103.769C276.234 103.048 276.502 102.095 276.502 100.908C276.502 99.7305 276.234 98.7812 275.698 98.0605C275.162 97.3311 274.366 96.9663 273.312 96.9663C272.257 96.9663 271.457 97.3354 270.912 98.0737C270.367 98.8032 270.095 99.748 270.095 100.908C270.095 102.077 270.363 103.026 270.899 103.756C271.444 104.485 272.248 104.85 273.312 104.85ZM288.143 94.0527C289.321 94.0527 290.336 94.2812 291.188 94.7383C292.05 95.1953 292.705 95.8369 293.153 96.6631C293.61 97.4893 293.838 98.4385 293.838 99.5107V107.5H291.188L290.991 105.747C290.586 106.397 289.998 106.898 289.224 107.25C288.459 107.592 287.677 107.764 286.877 107.764C285.972 107.764 285.155 107.597 284.425 107.263C283.705 106.92 283.133 106.423 282.711 105.773C282.298 105.123 282.092 104.349 282.092 103.453C282.092 102.108 282.562 101.137 283.502 100.539C284.452 99.9414 285.73 99.6426 287.339 99.6426H290.912C290.885 98.9658 290.789 98.4297 290.622 98.0342C290.455 97.6299 290.178 97.3354 289.791 97.1509C289.404 96.9575 288.864 96.8608 288.169 96.8608C287.466 96.8608 286.851 97.0366 286.324 97.3882C285.805 97.731 285.388 98.1748 285.071 98.7197L282.606 96.9399C283.283 96.0171 284.065 95.3052 284.953 94.8042C285.849 94.3032 286.913 94.0527 288.143 94.0527ZM287.523 105.048C288.156 105.048 288.719 104.912 289.211 104.639C289.703 104.367 290.094 104.006 290.384 103.558C290.674 103.101 290.854 102.604 290.925 102.068V101.963H287.523C286.829 101.963 286.297 102.117 285.928 102.424C285.568 102.732 285.388 103.11 285.388 103.558C285.388 104.006 285.568 104.367 285.928 104.639C286.297 104.912 286.829 105.048 287.523 105.048ZM301.854 107.764C301.001 107.764 300.268 107.605 299.652 107.289C299.037 106.973 298.562 106.524 298.229 105.944C297.903 105.355 297.741 104.661 297.741 103.861V97.019H295.618V94.3296H297.793V91.0601L300.958 88.7661V94.3296H304.253V97.019H300.958V103.294C300.958 103.892 301.085 104.314 301.34 104.56C301.604 104.806 301.964 104.929 302.421 104.929C302.729 104.929 303.045 104.885 303.37 104.797C303.695 104.701 303.99 104.586 304.253 104.455V107.368C303.972 107.474 303.612 107.566 303.172 107.645C302.742 107.724 302.302 107.764 301.854 107.764ZM307.141 88.8716H310.516V91.8379H307.141V88.8716ZM307.22 94.3296H310.437V107.5H307.22V94.3296ZM319.797 107.764C318.479 107.764 317.305 107.456 316.277 106.841C315.249 106.217 314.453 105.382 313.891 104.336C313.328 103.281 313.047 102.13 313.047 100.882C313.047 99.6426 313.328 98.5044 313.891 97.4673C314.453 96.4214 315.249 95.5908 316.277 94.9756C317.305 94.3604 318.479 94.0527 319.797 94.0527C321.115 94.0527 322.289 94.3604 323.317 94.9756C324.345 95.5908 325.141 96.4214 325.703 97.4673C326.266 98.5044 326.547 99.6426 326.547 100.882C326.547 102.13 326.266 103.281 325.703 104.336C325.141 105.382 324.345 106.217 323.317 106.841C322.289 107.456 321.115 107.764 319.797 107.764ZM319.797 104.995C320.57 104.995 321.212 104.811 321.722 104.441C322.231 104.063 322.605 103.567 322.842 102.952C323.08 102.328 323.198 101.638 323.198 100.882C323.198 99.7041 322.917 98.7373 322.354 97.9814C321.801 97.2168 320.948 96.8345 319.797 96.8345C319.023 96.8345 318.382 97.019 317.872 97.3882C317.362 97.7485 316.989 98.2319 316.751 98.8384C316.514 99.4448 316.396 100.126 316.396 100.882C316.396 101.638 316.514 102.328 316.751 102.952C316.989 103.567 317.362 104.063 317.872 104.441C318.382 104.811 319.023 104.995 319.797 104.995ZM329.157 94.3296H332.374V95.8589C332.875 95.2524 333.468 94.7998 334.154 94.501C334.839 94.2021 335.534 94.0527 336.237 94.0527C337.327 94.0527 338.232 94.312 338.953 94.8306C339.673 95.3491 340.201 96.0303 340.535 96.874C340.877 97.709 341.049 98.6143 341.049 99.5898V107.5H337.832V99.9985C337.832 99.1108 337.612 98.3945 337.173 97.8496C336.733 97.2959 336.114 97.019 335.314 97.019C334.382 97.019 333.657 97.2871 333.139 97.8232C332.629 98.3506 332.374 99.1724 332.374 100.289V107.5H329.157V94.3296Z" fill="#06000B"/>
</svg>
